# xmcd
#
# Track frame offsets:
#	150
#	12210
#	26020
#	42402
#	56777
#	66947
#	84522
#	97747
#	112025
#	120657
#	138270
#	153217
#	168610
#	181375
#
# Disc length: 2601 seconds
#
# Revision: 2
# Processed by: cddbd v1.5.1PL0 Copyright (c) Steve Scherf et al.
# Submitted via: audiograbber 1.82.02
#
DISCID=b60a270e
DTITLE=Various Artist - Mr. Music Country 94/03
DYEAR=1994
DGENRE=Country
TTITLE0=George Jones - Hello Darlin'
TTITLE1=Simon Richmond - Dancing Fool
TTITLE2=George Highfill - Delicate Hands
TTITLE3=Evangeline - Let's Go Spending Your Money Honey
TTITLE4=George Strait - Heartland
TTITLE5=Mark Collie - Hillbilly Boy with the Rock'n'Roll Blues
TTITLE6=Leo Nelson - Left Leavin' Goin' or Gone
TTITLE7=Conway Twitty - Don't It Make You Lonely
TTITLE8=Troy Alan - Me and Joe
TTITLE9=Diana Murrell - Open House
TTITLE10=Mark Chesnutt - I Just Wanted You to Know
TTITLE11=Bill Arwood - Under Neon Lights
TTITLE12=Kevin Charles with Debra Dugger - Eleven Roses
TTITLE13=Debra Burns - Hopelessly Fallin'
EXTD=
EXTT0=
EXTT1=
EXTT2=
EXTT3=
EXTT4=
EXTT5=
EXTT6=
EXTT7=
EXTT8=
EXTT9=
EXTT10=
EXTT11=
EXTT12=
EXTT13=
PLAYORDER=
